<svg width="107" height="120" viewBox="0 0 107 120" fill="none" xmlns="http://www.w3.org/2000/svg">
    <path d="M1.21227 66.1493C6.41978 45.984 19.0951 4.72282 28.1362 1C30.463 2.88357 36.9114 12.102 44.0911 33.907L73.3419 39.2254C78.8818 31.2479 91.823 14.8276 99.2686 12.9662C102.149 19.7249 107.313 42.8152 104.919 81.107C102.703 91.9653 88.1002 114.745 47.4151 119C31.3494 113.349 -0.383221 94.8682 1.21227 66.1493Z" fill="#FF9740"/>
    <path d="M1.21227 66.1493C6.41978 45.984 19.0951 4.72282 28.1362 1C30.463 2.88357 36.9114 12.102 44.0911 33.907L73.3419 39.2254C78.8818 31.2479 91.823 14.8276 99.2686 12.9662C102.149 19.7249 107.313 42.8152 104.919 81.107M1.21227 66.1493C-0.383221 94.8682 31.3494 113.349 47.4151 119C88.1002 114.745 102.703 91.9653 104.919 81.107M1.21227 66.1493C8.0818 61.2742 25.2113 53.2524 38.773 60.1662C42.6508 61.8282 49.1434 72.7307 44.0911 103.045M104.919 81.107C96.9417 70.4704 84.3109 66.2601 78.9927 65.4845C61.7082 62.0276 54.0631 90.1925 52.4011 104.707M44.0911 103.045C41.8752 104.485 39.2383 108.164 46.418 111.355C49.5204 111.466 55.0603 110.291 52.4011 104.707M44.0911 103.045C49.4094 102.513 51.8471 103.931 52.4011 104.707" stroke="#FDD9B5"/>
    <path d="M39.7121 60.8312C28.0118 52.5878 9.13184 60.942 1.15438 66.1495C-1.50478 92.7411 30.8483 112.463 47.3572 119C86.7127 115.809 102.091 91.9654 104.861 80.4424C94.4907 68.2103 81.483 65.1522 76.2755 65.1522C60.8524 65.95 54.1159 91.633 52.6755 104.375C49.2186 102.247 45.6952 102.38 44.3656 102.713C49.1521 77.4508 43.2577 64.2659 39.7121 60.8312Z" fill="#FFEAD5" stroke="#FDD9B5"/>
    <path d="M52.3436 104.707C50.4822 102.314 46.0281 102.602 44.0337 103.045C38.9814 107.034 43.7014 110.247 46.6929 111.355C53.8726 110.823 53.4516 106.701 52.3436 104.707Z" fill="black" stroke="#FDD9B5"/>
    <path d="M99.5432 43.2141C100.075 32.0457 99.1 22.6057 98.546 19.2818C91.1004 24.0682 85.4718 35.6799 83.5882 40.8874L99.5432 43.2141Z" fill="#FFC1C0"/>
    <path d="M33.3967 32.5775C31.5353 16.0908 28.1892 9.08832 26.7488 7.64795C21.4305 13.4981 18.1066 25.1541 17.1094 30.2508L33.3967 32.5775Z" fill="#FFC1C0"/>
    <path d="M99.5432 43.2141C100.075 32.0457 99.1 22.6057 98.546 19.2818C91.1004 24.0682 85.4718 35.6799 83.5882 40.8874L99.5432 43.2141Z" stroke="#FDD9B5"/>
    <path d="M33.3967 32.5775C31.5353 16.0908 28.1892 9.08832 26.7488 7.64795C21.4305 13.4981 18.1066 25.1541 17.1094 30.2508L33.3967 32.5775Z" stroke="#FDD9B5"/>
    <ellipse cx="26.0846" cy="78.4478" rx="2.32676" ry="3.65634" fill="black"/>
    <ellipse cx="77.273" cy="86.4254" rx="2.32676" ry="3.65634" fill="black"/>
</svg>