<svg width="126" height="113" viewBox="0 0 126 113" fill="none" xmlns="http://www.w3.org/2000/svg">
    <path d="M29.2483 29.0641C26.6577 30.7911 14.7365 34.1012 9.09971 35.5404C-16.8056 61.7336 25.6503 95.6263 50.1165 109.299C114.592 120.812 126.633 92.748 124.594 77.2767C122.004 74.9741 115.839 63.8444 113.081 58.5674C123.155 46.4782 122.555 33.8614 120.996 29.0641C117.542 25.0344 103.246 28.5844 96.5301 30.8631C86.168 15.6077 67.2667 15.6317 59.1113 17.5506C54.7938 6.61282 45.559 1.95946 41.4813 1C34.5733 4.1662 30.4476 21.0286 29.2483 29.0641Z" fill="#FDD9B5" stroke="#FDD9B5"/>
    <path d="M109.483 51.3715C109.483 50.2202 104.445 41.777 101.927 37.6993C106.005 35.5405 114.52 32.0145 115.959 35.1807C117.398 38.3469 112.241 47.2939 109.483 51.3715Z" fill="#8B898A"/>
    <path d="M37.1636 24.7467C41.4811 21.5085 51.5554 19.7095 51.9152 19.3497C50.1882 13.0173 45.199 9.27543 42.9203 8.19604C39.1784 10.2109 37.5234 20.0693 37.1636 24.7467Z" fill="#8B898A"/>
    <path d="M109.483 51.3715C109.483 50.2202 104.445 41.777 101.927 37.6993C106.005 35.5405 114.52 32.0145 115.959 35.1807C117.398 38.3469 112.241 47.2939 109.483 51.3715Z" stroke="#FDD9B5"/>
    <path d="M37.1636 24.7467C41.4811 21.5085 51.5554 19.7095 51.9152 19.3497C50.1882 13.0173 45.199 9.27543 42.9203 8.19604C39.1784 10.2109 37.5234 20.0693 37.1636 24.7467Z" stroke="#FDD9B5"/>
    <path d="M40.7618 43.4561C17.7348 50.0764 4.78216 50.772 1.18421 50.2922C-0.542816 65.2597 10.299 78.5962 15.9358 83.3935C43.6401 77.9965 50.2726 66.1233 51.1958 64.6841C60.9823 49.4287 49.2381 41.0189 40.7618 43.4561Z" fill="#8B898A"/>
    <path d="M96.8898 65.4037C103.006 71.5202 114.16 87.5911 120.996 94.1874C114.952 105.701 97.3696 110.498 89.3341 111.458C79.5477 101.671 72.7835 86.6316 72.7835 77.9965C72.7835 45.6149 92.705 61.2189 96.8898 65.4037Z" fill="#8B898A"/>
    <path d="M40.7618 43.4561C17.7348 50.0764 4.78216 50.772 1.18421 50.2922C-0.542816 65.2597 10.299 78.5962 15.9358 83.3935C43.6401 77.9965 50.2726 66.1233 51.1958 64.6841C60.9823 49.4287 49.2381 41.0189 40.7618 43.4561Z" stroke="#FDD9B5"/>
    <path d="M96.8898 65.4037C103.006 71.5202 114.16 87.5911 120.996 94.1874C114.952 105.701 97.3696 110.498 89.3341 111.458C79.5477 101.671 72.7835 86.6316 72.7835 77.9965C72.7835 45.6149 92.705 61.2189 96.8898 65.4037Z" stroke="#FDD9B5"/>
    <path d="M58.0323 80.155C55.8735 78.356 60.1911 70.4405 60.5509 70.0807C53.9307 63.4605 57.7924 60.6061 60.5509 60.0064C67.3869 58.2075 70.8409 63.8922 70.2653 66.4827C69.6896 69.0733 64.9883 70.6804 62.7095 71.1601C61.8701 74.7581 59.7593 81.5942 58.0323 80.155Z" fill="#4C4F65" stroke="#FDD9B5"/>
    <ellipse cx="44.3599" cy="54.2498" rx="2.51857" ry="3.59796" fill="black"/>
    <ellipse cx="84.6572" cy="70.0809" rx="2.51857" ry="3.59796" fill="black"/>
</svg>